<svg xmlns="http://www.w3.org/2000/svg" xmlns:xlink="http://www.w3.org/1999/xlink" width="150" viewBox="0 0 112.5 112.499997" height="150" preserveAspectRatio="xMidYMid meet"><defs><clipPath id="9c1a7fa743"><path d="M 4.09375 7.648438 L 100.800781 7.648438 L 100.800781 104.355469 L 4.09375 104.355469 Z M 4.09375 7.648438 " clip-rule="nonzero"></path></clipPath><clipPath id="f518d72536"><path d="M 52.449219 7.648438 C 25.742188 7.648438 4.09375 29.296875 4.09375 56 C 4.09375 82.707031 25.742188 104.355469 52.449219 104.355469 C 79.152344 104.355469 100.800781 82.707031 100.800781 56 C 100.800781 29.296875 79.152344 7.648438 52.449219 7.648438 Z M 52.449219 7.648438 " clip-rule="nonzero"></path></clipPath><clipPath id="e6107cf8d7"><path d="M 43.015625 47 L 87.816406 47 L 87.816406 74.417969 L 43.015625 74.417969 Z M 43.015625 47 " clip-rule="nonzero"></path></clipPath><clipPath id="891865786f"><path d="M 13.707031 38.109375 L 49 38.109375 L 49 82.910156 L 13.707031 82.910156 Z M 13.707031 38.109375 " clip-rule="nonzero"></path></clipPath></defs><g clip-path="url(#9c1a7fa743)"><g clip-path="url(#f518d72536)"><path fill="#dc3d53" d="M 4.09375 7.648438 L 100.800781 7.648438 L 100.800781 104.355469 L 4.09375 104.355469 Z M 4.09375 7.648438 " fill-opacity="1" fill-rule="nonzero"></path></g></g><g clip-path="url(#e6107cf8d7)"><path fill="#ffffff" d="M 65.304688 48.179688 C 67.019531 49.285156 70.96875 51.800781 71.027344 51.660156 C 71.085938 51.527344 69.070312 49.40625 68.054688 48.34375 C 67.230469 48.28125 66.300781 48.226562 65.304688 48.179688 Z M 77.582031 54.53125 C 77.890625 54.542969 78.203125 54.554688 78.515625 54.574219 C 77.789062 53.8125 73.308594 49.167969 71.128906 48.691406 C 70.929688 48.648438 70.632812 48.605469 70.261719 48.558594 C 72.074219 50.015625 76.570312 53.65625 77.582031 54.53125 Z M 84.835938 59.839844 C 84.957031 60.066406 85.042969 60.386719 85.03125 60.851562 C 85.023438 61.335938 84.902344 61.878906 84.761719 62.359375 C 85.417969 61.578125 85.835938 60.585938 86.015625 60.085938 C 86.015625 60.0625 86.011719 60.039062 86.007812 60.015625 C 85.828125 59.9375 85.480469 59.847656 84.835938 59.839844 Z M 84.105469 59.921875 C 84.050781 59.921875 84.003906 59.902344 83.960938 59.875 C 83.449219 59.917969 82.816406 60 82.046875 60.144531 C 80.566406 60.417969 79.183594 61.023438 78.058594 61.6875 C 76.441406 62.636719 75.363281 63.589844 75.34375 63.816406 C 75.40625 63.855469 77.023438 63.804688 78.75 63.734375 C 80.660156 63.65625 82.667969 63.492188 83.144531 63.414062 C 83.152344 63.414062 83.167969 63.410156 83.1875 63.40625 C 83.433594 63.355469 83.660156 63.261719 83.871094 63.136719 C 84.074219 62.628906 84.429688 61.636719 84.449219 60.839844 C 84.46875 59.9375 84.105469 59.921875 84.105469 59.921875 Z M 44.289062 60.652344 C 44.289062 60.652344 46.328125 61.179688 48.191406 61.855469 C 50.117188 62.550781 51.875 63.402344 52.035156 63.671875 C 52.34375 64.199219 51.542969 64.535156 51.273438 64.550781 C 51 64.5625 45.15625 64.679688 45.15625 64.5 C 45.15625 64.316406 45.65625 64.097656 46.09375 64.121094 C 46.535156 64.148438 51.492188 64.070312 51.414062 63.8125 C 51.335938 63.554688 47.542969 61.875 46.277344 61.464844 C 45.011719 61.050781 44.289062 60.652344 44.289062 60.652344 Z M 81.992188 65.753906 C 82.390625 65.753906 82.75 65.914062 83.011719 66.175781 C 83.269531 66.4375 83.433594 66.796875 83.433594 67.195312 C 83.433594 67.59375 83.269531 67.953125 83.011719 68.214844 C 82.75 68.476562 82.390625 68.636719 81.992188 68.636719 C 81.59375 68.636719 81.230469 68.476562 80.972656 68.214844 C 80.710938 67.953125 80.550781 67.59375 80.550781 67.195312 C 80.550781 66.796875 80.710938 66.4375 80.972656 66.175781 C 81.230469 65.914062 81.59375 65.753906 81.992188 65.753906 Z M 77.617188 63.421875 C 77.457031 63.425781 77.320312 63.300781 77.3125 63.140625 C 77.304688 62.980469 77.429688 62.84375 77.589844 62.835938 C 77.605469 62.835938 82.476562 62.621094 82.894531 62.320312 C 83.261719 62.058594 83.289062 60.722656 83.289062 60.722656 C 83.292969 60.558594 83.425781 60.433594 83.585938 60.433594 C 83.746094 60.4375 83.875 60.570312 83.871094 60.734375 C 83.871094 60.738281 83.84375 62.363281 83.234375 62.796875 C 82.671875 63.195312 77.632812 63.417969 77.617188 63.421875 Z M 82.113281 66.761719 C 81.980469 66.632812 81.800781 66.550781 81.597656 66.550781 C 81.398438 66.550781 81.214844 66.632812 81.078125 66.761719 C 80.949219 66.894531 80.867188 67.078125 80.867188 67.28125 C 80.867188 67.480469 80.949219 67.664062 81.078125 67.796875 C 81.214844 67.929688 81.398438 68.011719 81.597656 68.011719 C 81.800781 68.011719 81.980469 67.929688 82.113281 67.796875 C 82.246094 67.664062 82.328125 67.480469 82.328125 67.28125 C 82.328125 67.078125 82.246094 66.894531 82.113281 66.761719 Z M 50.550781 67.464844 C 50.550781 67.464844 52.664062 65.039062 53.722656 64.832031 C 54.785156 64.625 72.207031 64.160156 74.6875 65.167969 C 77.164062 66.175781 80.777344 70.175781 80.597656 71.003906 C 80.566406 71.148438 80.527344 71.273438 80.488281 71.378906 L 86.558594 71.335938 C 86.679688 71.335938 86.84375 70.929688 86.949219 70.519531 L 86.953125 70.507812 C 86.984375 70.371094 87.011719 70.234375 87.019531 70.113281 C 87.027344 70.039062 87.027344 69.96875 87.023438 69.914062 L 84.703125 69.894531 C 84.488281 69.894531 81.34375 69.71875 81.34375 69.503906 C 81.34375 69.292969 84.488281 69.117188 84.703125 69.117188 L 85.976562 69.128906 C 86.0625 68.054688 86.304688 64.667969 86.148438 61.667969 C 85.578125 62.703125 84.65625 63.894531 83.351562 64.167969 C 83.339844 64.171875 83.308594 64.175781 83.261719 64.183594 C 82.769531 64.261719 80.714844 64.433594 78.777344 64.511719 C 76.683594 64.597656 74.691406 64.515625 74.578125 63.976562 C 74.570312 63.953125 74.566406 63.925781 74.566406 63.902344 C 74.5625 63.800781 74.601562 63.703125 74.667969 63.628906 C 74.996094 63.035156 76.101562 61.933594 77.664062 61.015625 C 78.859375 60.3125 80.328125 59.671875 81.910156 59.378906 C 83.964844 59 85.1875 59.0625 85.898438 59.226562 C 85.691406 58.007812 85.355469 57.058594 84.839844 56.667969 C 83.007812 55.296875 77.667969 54.8125 75.003906 55.339844 C 74.804688 55.402344 75.007812 55.3125 74.433594 55.539062 C 73.851562 55.765625 70.109375 62.375 69.722656 62.375 C 69.335938 62.375 71.273438 58.425781 71.480469 57.753906 C 71.601562 57.351562 71.800781 56.773438 71.75 56.300781 C 71.621094 56.257812 71.570312 56.207031 71.570312 56.207031 C 71.570312 56.207031 71.542969 56.101562 70.148438 55.867188 C 68.753906 55.636719 56.183594 55.664062 55.304688 56.023438 C 54.429688 56.386719 54.582031 57.082031 54.789062 57.753906 C 54.996094 58.425781 56.933594 62.375 56.542969 62.375 C 56.160156 62.375 53.1875 56.695312 52.207031 56.308594 C 51.226562 55.921875 45.742188 55.199219 45.742188 55.199219 C 45.742188 55.199219 52.492188 55.378906 53.097656 55.3125 C 53.707031 55.25 54.105469 54.488281 54.542969 54.464844 C 54.789062 54.449219 60.5 54.460938 65.492188 54.476562 C 64.304688 53.070312 60.648438 48.742188 60.363281 48.304688 C 60.304688 48.210938 60.273438 48.125 60.257812 48.050781 C 56.078125 48.042969 52.003906 48.300781 50.609375 49.132812 C 47.628906 50.902344 45.1875 53.417969 45.1875 53.417969 C 45.1875 53.417969 47.847656 49.207031 51.148438 48.046875 C 54.453125 46.886719 69.425781 46.808594 73.066406 47.917969 C 76.707031 49.027344 80.089844 53.984375 80.089844 53.984375 L 80.160156 54.070312 C 80.453125 53.605469 80.972656 52.894531 81.605469 52.585938 C 82.585938 52.105469 87.246094 52.003906 87.476562 52.558594 C 87.707031 53.113281 86.304688 54.84375 85.039062 54.882812 C 83.773438 54.921875 81.613281 54.574219 81 54.792969 C 81.082031 54.804688 81.171875 54.816406 81.253906 54.828125 C 84.613281 55.304688 86.101562 56.152344 86.441406 57.390625 C 86.5625 57.855469 86.957031 59.246094 87.078125 61.332031 C 87.246094 64.226562 87.210938 67.941406 87.191406 69.136719 C 87.527344 69.140625 87.714844 69.355469 87.78125 69.699219 C 87.808594 69.839844 87.8125 70.003906 87.796875 70.179688 C 87.785156 70.34375 87.75 70.519531 87.707031 70.699219 L 87.703125 70.714844 C 87.523438 71.410156 87.09375 72.109375 86.5625 72.113281 L 86.535156 72.113281 C 86.496094 72.648438 86.402344 73.5625 86.238281 73.6875 C 86.199219 73.71875 85.96875 73.742188 85.617188 73.761719 L 85.613281 73.761719 C 84.636719 73.816406 82.703125 73.824219 81.234375 73.816406 C 70.730469 73.9375 44.929688 74.210938 44.105469 73.945312 C 43.308594 73.6875 67.332031 73.339844 78.542969 73.191406 C 78.542969 73.167969 78.542969 73.144531 78.546875 73.121094 C 78.578125 72.886719 78.527344 72.300781 78.484375 71.914062 C 73.878906 71.9375 59.878906 72 44.902344 72.046875 L 44.902344 72.050781 C 44 72.117188 43.035156 72.148438 43.023438 71.984375 C 43.015625 71.8125 44.042969 71.625 44.960938 71.394531 C 62.242188 71.214844 77.867188 71.007812 78.015625 70.769531 C 78.09375 70.640625 77.941406 70.34375 77.644531 69.957031 C 72.550781 69.878906 54.101562 69.476562 53.273438 69.121094 C 53.273438 69.121094 70.882812 68.78125 76.542969 68.746094 C 76.167969 68.371094 75.757812 67.988281 75.351562 67.636719 C 69.820312 67.617188 53.789062 67.191406 53.300781 66.976562 C 52.816406 66.765625 68.808594 66.914062 74.4375 66.894531 C 73.953125 66.527344 73.53125 66.257812 73.265625 66.175781 C 72.128906 65.8125 53.984375 65.273438 53.3125 65.53125 C 52.640625 65.789062 50.910156 67.671875 50.730469 67.570312 C 50.550781 67.464844 50.550781 67.464844 50.550781 67.464844 " fill-opacity="1" fill-rule="evenodd"></path></g><g clip-path="url(#891865786f)"><path fill="#ffffff" d="M 48.953125 43.777344 C 48.953125 40.054688 40.164062 38.109375 31.464844 38.109375 C 22.765625 38.109375 13.976562 40.054688 13.976562 43.777344 L 13.976562 65.960938 C 13.976562 66.007812 13.992188 66.054688 13.992188 66.101562 L 13.976562 66.101562 L 13.976562 77.210938 C 13.976562 80.933594 22.765625 82.878906 31.464844 82.878906 C 40.164062 82.878906 48.953125 80.933594 48.953125 77.210938 L 48.953125 66.101562 L 48.9375 66.101562 C 48.9375 66.054688 48.953125 66.007812 48.953125 65.960938 Z M 47.40625 77.210938 C 47.40625 78.941406 41.351562 81.335938 31.464844 81.335938 C 21.578125 81.335938 15.523438 78.941406 15.523438 77.210938 L 15.523438 68.449219 C 18.410156 70.550781 24.976562 71.648438 31.464844 71.648438 C 37.953125 71.648438 44.519531 70.550781 47.40625 68.449219 Z M 47.40625 65.960938 C 47.40625 67.691406 41.351562 70.101562 31.464844 70.101562 C 21.578125 70.101562 15.523438 67.691406 15.523438 65.960938 L 15.523438 57.359375 C 18.410156 59.472656 24.976562 60.554688 31.464844 60.554688 C 37.953125 60.554688 44.519531 59.472656 47.40625 57.359375 Z M 47.40625 54.886719 C 47.40625 56.617188 41.351562 59.011719 31.464844 59.011719 C 21.578125 59.011719 15.523438 56.617188 15.523438 54.886719 L 15.523438 46.265625 C 18.410156 48.367188 24.976562 49.464844 31.464844 49.464844 C 37.953125 49.464844 44.519531 48.367188 47.40625 46.265625 Z M 31.464844 47.917969 C 21.578125 47.917969 15.523438 45.507812 15.523438 43.777344 C 15.523438 42.0625 21.578125 39.652344 31.464844 39.652344 C 41.351562 39.652344 47.40625 42.0625 47.40625 43.777344 C 47.40625 45.507812 41.351562 47.917969 31.464844 47.917969 Z M 31.464844 47.917969 " fill-opacity="1" fill-rule="nonzero"></path></g><path fill="#ffffff" d="M 31.464844 54.625 L 31.464844 56.167969 C 33.570312 56.167969 35.625 56.054688 37.578125 55.835938 L 37.402344 54.300781 C 35.511719 54.515625 33.511719 54.625 31.464844 54.625 Z M 31.464844 54.625 " fill-opacity="1" fill-rule="nonzero"></path><path fill="#ffffff" d="M 34.785156 51.933594 L 34.878906 53.476562 C 35.808594 53.421875 36.710938 53.34375 37.578125 53.246094 L 37.402344 51.710938 C 36.5625 51.804688 35.6875 51.882812 34.785156 51.933594 Z M 34.785156 51.933594 " fill-opacity="1" fill-rule="nonzero"></path><path fill="#ffffff" d="M 37.402344 65.660156 C 35.507812 65.875 33.511719 65.980469 31.464844 65.980469 L 31.464844 67.527344 C 33.570312 67.527344 35.625 67.414062 37.578125 67.191406 Z M 37.402344 65.660156 " fill-opacity="1" fill-rule="nonzero"></path><path fill="#ffffff" d="M 37.578125 64.605469 L 37.402344 63.070312 C 36.5625 63.164062 35.6875 63.242188 34.785156 63.292969 L 34.878906 64.835938 C 35.808594 64.78125 36.710938 64.703125 37.578125 64.605469 Z M 37.578125 64.605469 " fill-opacity="1" fill-rule="nonzero"></path><path fill="#ffffff" d="M 31.464844 77.339844 L 31.464844 78.886719 C 33.570312 78.886719 35.625 78.773438 37.578125 78.554688 L 37.402344 77.019531 C 35.507812 77.234375 33.511719 77.339844 31.464844 77.339844 Z M 31.464844 77.339844 " fill-opacity="1" fill-rule="nonzero"></path><path fill="#ffffff" d="M 34.785156 74.652344 L 34.878906 76.195312 C 35.808594 76.140625 36.710938 76.0625 37.578125 75.960938 L 37.402344 74.429688 C 36.5625 74.523438 35.6875 74.601562 34.785156 74.652344 Z M 34.785156 74.652344 " fill-opacity="1" fill-rule="nonzero"></path><path fill="#ffffff" d="M 18.875 49.988281 C 18.875 50.53125 18.425781 50.976562 17.886719 50.976562 C 17.328125 50.976562 16.882812 50.53125 16.882812 49.988281 C 16.882812 49.433594 17.328125 48.984375 17.886719 48.984375 C 18.425781 48.984375 18.875 49.433594 18.875 49.988281 Z M 18.875 49.988281 " fill-opacity="1" fill-rule="nonzero"></path><path fill="#ffffff" d="M 18.875 53.710938 C 18.875 54.269531 18.425781 54.714844 17.886719 54.714844 C 17.328125 54.714844 16.882812 54.269531 16.882812 53.710938 C 16.882812 53.15625 17.328125 52.707031 17.886719 52.707031 C 18.425781 52.707031 18.875 53.15625 18.875 53.710938 Z M 18.875 53.710938 " fill-opacity="1" fill-rule="nonzero"></path><path fill="#ffffff" d="M 18.875 61.574219 C 18.875 62.117188 18.425781 62.5625 17.886719 62.5625 C 17.328125 62.5625 16.882812 62.117188 16.882812 61.574219 C 16.882812 61.019531 17.328125 60.570312 17.886719 60.570312 C 18.425781 60.570312 18.875 61.019531 18.875 61.574219 Z M 18.875 61.574219 " fill-opacity="1" fill-rule="nonzero"></path><path fill="#ffffff" d="M 18.875 65.296875 C 18.875 65.855469 18.425781 66.300781 17.886719 66.300781 C 17.328125 66.300781 16.882812 65.855469 16.882812 65.296875 C 16.882812 64.742188 17.328125 64.292969 17.886719 64.292969 C 18.425781 64.292969 18.875 64.742188 18.875 65.296875 Z M 18.875 65.296875 " fill-opacity="1" fill-rule="nonzero"></path><path fill="#ffffff" d="M 18.875 72.699219 C 18.875 73.253906 18.425781 73.703125 17.886719 73.703125 C 17.328125 73.703125 16.882812 73.253906 16.882812 72.699219 C 16.882812 72.15625 17.328125 71.710938 17.886719 71.710938 C 18.425781 71.710938 18.875 72.15625 18.875 72.699219 Z M 18.875 72.699219 " fill-opacity="1" fill-rule="nonzero"></path><path fill="#ffffff" d="M 18.875 76.421875 C 18.875 76.976562 18.425781 77.425781 17.886719 77.425781 C 17.328125 77.425781 16.882812 76.976562 16.882812 76.421875 C 16.882812 75.878906 17.328125 75.433594 17.886719 75.433594 C 18.425781 75.433594 18.875 75.878906 18.875 76.421875 Z M 18.875 76.421875 " fill-opacity="1" fill-rule="nonzero"></path></svg>