<svg xmlns="http://www.w3.org/2000/svg" width="17" height="20" viewBox="0 0 17 20" fill="none"><path d="M11.74 9.63449C10.8177 10.5567 9.69606 11.0179 8.375 11.0179C7.05394 11.0179 5.91983 10.5567 4.97266 9.63449C4.05041 8.68731 3.58929 7.5532 3.58929 6.23214V0.25L5.98214 1.44643L8.375 0.25L10.7679 1.44643L13.1607 0.25V6.23214C13.1607 7.5532 12.6871 8.68731 11.74 9.63449ZM5.38393 5.03571V6.23214C5.38393 7.05469 5.67057 7.76507 6.24386 8.36328C6.84208 8.93657 7.55246 9.22321 8.375 9.22321C9.19755 9.22321 9.89546 8.93657 10.4688 8.36328C11.067 7.76507 11.3661 7.05469 11.3661 6.23214V5.03571H5.38393ZM11.74 11.6161C13.1109 11.6161 14.2824 12.1146 15.2545 13.1116C16.2515 14.0837 16.75 15.2552 16.75 16.6261V17.5982C16.75 18.0967 16.5755 18.5205 16.2266 18.8694C15.8776 19.2184 15.4539 19.3929 14.9554 19.3929H1.79464C1.29613 19.3929 0.872396 19.2184 0.523438 18.8694C0.174479 18.5205 0 18.0967 0 17.5982V16.6261C0 15.2552 0.486049 14.0837 1.45815 13.1116C2.45517 12.1146 3.63914 11.6161 5.01004 11.6161C5.38393 11.6161 5.7952 11.6908 6.24386 11.8404C6.94178 12.0897 7.65216 12.2143 8.375 12.2143C9.09784 12.2143 9.80822 12.0897 10.5061 11.8404C10.9548 11.6908 11.3661 11.6161 11.74 11.6161ZM14.9554 17.5982V16.6261C14.9554 15.7537 14.6313 15.006 13.9833 14.3828C13.3601 13.7347 12.6124 13.4107 11.74 13.4107C11.5655 13.4107 11.3536 13.4606 11.1044 13.5603C10.232 13.8594 9.32217 14.0089 8.375 14.0089C7.42783 14.0089 6.51804 13.8594 5.64565 13.5603C5.39639 13.4606 5.18452 13.4107 5.01004 13.4107C4.13765 13.4107 3.37742 13.7347 2.72935 14.3828C2.10621 15.006 1.79464 15.7537 1.79464 16.6261V17.5982H14.9554Z" fill="black"></path></svg>