<svg xmlns="http://www.w3.org/2000/svg" width="18" height="18" viewBox="0 0 18 18" fill="none"><path d="M9.4875 5.175C9.73906 5.175 9.93672 5.26484 10.0805 5.44453C10.2602 5.58828 10.35 5.78594 10.35 6.0375V16.3875C10.35 16.6391 10.2602 16.8367 10.0805 16.9805C9.93672 17.1602 9.73906 17.25 9.4875 17.25H7.7625C7.51094 17.25 7.29531 17.1602 7.11562 16.9805C6.97188 16.8367 6.9 16.6391 6.9 16.3875V6.0375C6.9 5.78594 6.97188 5.58828 7.11562 5.44453C7.29531 5.26484 7.51094 5.175 7.7625 5.175H9.4875ZM2.5875 10.35C2.83906 10.35 3.03672 10.4398 3.18047 10.6195C3.36016 10.7633 3.45 10.9609 3.45 11.2125V16.3875C3.45 16.6391 3.36016 16.8367 3.18047 16.9805C3.03672 17.1602 2.83906 17.25 2.5875 17.25H0.8625C0.610937 17.25 0.395312 17.1602 0.215625 16.9805C0.071875 16.8367 0 16.6391 0 16.3875V11.2125C0 10.9609 0.071875 10.7633 0.215625 10.6195C0.395312 10.4398 0.610937 10.35 0.8625 10.35H2.5875ZM16.3875 0C16.6391 0 16.8367 0.0898438 16.9805 0.269531C17.1602 0.413281 17.25 0.610937 17.25 0.8625V16.3875C17.25 16.6391 17.1602 16.8367 16.9805 16.9805C16.8367 17.1602 16.6391 17.25 16.3875 17.25H14.6625C14.4109 17.25 14.1953 17.1602 14.0156 16.9805C13.8719 16.8367 13.8 16.6391 13.8 16.3875V0.8625C13.8 0.610937 13.8719 0.413281 14.0156 0.269531C14.1953 0.0898438 14.4109 0 14.6625 0H16.3875Z" fill="black"></path></svg>