<svg xmlns="http://www.w3.org/2000/svg" width="20" height="17" viewBox="0 0 20 17" fill="none"><path d="M17.0063 1.56173C17.897 2.32868 18.4908 3.24408 18.7877 4.30792C19.0845 5.34701 19.0969 6.349 18.8248 7.31388C18.5526 8.27875 18.0826 9.10756 17.4146 9.80029L10.9202 16.406C10.5244 16.8018 10.0543 16.9997 9.51 16.9997C8.96571 16.9997 8.49564 16.8018 8.0998 16.406L1.60544 9.80029C0.937447 9.10756 0.467379 8.27875 0.195234 7.31388C-0.0769104 6.32426 -0.0645402 5.3099 0.232345 4.2708C0.52923 3.23171 1.123 2.32868 2.01365 1.56173C3.07749 0.671075 4.32688 0.287598 5.76183 0.4113C7.22151 0.510262 8.4709 1.07929 9.51 2.11839C10.5491 1.07929 11.7861 0.510262 13.2211 0.4113C14.6807 0.287598 15.9425 0.671075 17.0063 1.56173ZM16.1528 8.53853C16.8703 7.79631 17.229 6.89329 17.229 5.82945C17.229 4.74087 16.7837 3.776 15.893 2.93482C15.1508 2.34105 14.2849 2.08128 13.2953 2.1555C12.3304 2.22972 11.5016 2.62557 10.8089 3.34304L9.51 4.64191L8.21113 3.34304C7.5184 2.62557 6.67722 2.22972 5.68761 2.1555C4.72273 2.08128 3.86919 2.34105 3.12697 2.93482C2.23632 3.776 1.79099 4.74087 1.79099 5.82945C1.79099 6.89329 2.14973 7.79631 2.8672 8.53853L9.39867 15.1442C9.47289 15.2432 9.54711 15.2432 9.62133 15.1442L16.1528 8.53853Z" fill="black"></path></svg>