<svg xmlns="http://www.w3.org/2000/svg" width="20" height="21" viewBox="0 0 20 21" fill="none"><path d="M3.73532 0.986175C3.53679 0.989277 3.34761 1.07105 3.20933 1.21354C3.07105 1.35602 2.99498 1.54757 2.99783 1.7461V20.2262C2.99642 20.3255 3.01477 20.4241 3.05179 20.5162C3.08881 20.6083 3.14377 20.6922 3.21348 20.7629C3.28319 20.8336 3.36625 20.8897 3.45784 20.928C3.54944 20.9664 3.64774 20.9861 3.74702 20.9861C3.84631 20.9861 3.94461 20.9664 4.0362 20.928C4.1278 20.8897 4.21086 20.8336 4.28057 20.7629C4.35028 20.6922 4.40524 20.6083 4.44226 20.5162C4.47928 20.4241 4.49762 20.3255 4.49622 20.2262V1.7461C4.49766 1.64583 4.47895 1.54628 4.44121 1.45337C4.40347 1.36046 4.34746 1.27607 4.2765 1.2052C4.20554 1.13433 4.12108 1.07843 4.02812 1.04081C3.93516 1.00319 3.83559 0.984608 3.73532 0.986175ZM15.7224 0.986175C15.5239 0.989277 15.3347 1.07105 15.1964 1.21354C15.0582 1.35602 14.9821 1.54757 14.9849 1.7461V20.2262C14.9835 20.3255 15.0019 20.4241 15.0389 20.5162C15.0759 20.6083 15.1309 20.6922 15.2006 20.7629C15.2703 20.8336 15.3534 20.8897 15.4449 20.928C15.5365 20.9664 15.6348 20.9861 15.7341 20.9861C15.8334 20.9861 15.9317 20.9664 16.0233 20.928C16.1149 20.8897 16.198 20.8336 16.2677 20.7629C16.3374 20.6922 16.3923 20.6083 16.4294 20.5162C16.4664 20.4241 16.4847 20.3255 16.4833 20.2262V1.7461C16.4848 1.64583 16.4661 1.54628 16.4283 1.45337C16.3906 1.36046 16.3346 1.27607 16.2636 1.2052C16.1926 1.13433 16.1082 1.07843 16.0152 1.04081C15.9223 1.00319 15.8227 0.984608 15.7224 0.986175ZM6.73112 5.9769C6.63273 5.97831 6.53559 5.99908 6.44523 6.03804C6.35487 6.07699 6.27307 6.13336 6.2045 6.20392C6.13593 6.27449 6.08193 6.35787 6.04558 6.4493C6.00923 6.54074 5.99124 6.63844 5.99265 6.73683V15.2277C5.99125 15.327 6.00959 15.4255 6.04661 15.5177C6.08363 15.6098 6.13859 15.6936 6.2083 15.7643C6.27801 15.835 6.36108 15.8912 6.45267 15.9295C6.54426 15.9678 6.64256 15.9876 6.74185 15.9876C6.84114 15.9876 6.93943 15.9678 7.03103 15.9295C7.12262 15.8912 7.20569 15.835 7.27539 15.7643C7.3451 15.6936 7.40006 15.6098 7.43708 15.5177C7.47411 15.4255 7.49245 15.327 7.49104 15.2277V6.73683C7.49248 6.63663 7.4738 6.53717 7.43612 6.44432C7.39844 6.35148 7.34252 6.26713 7.27166 6.19628C7.20081 6.12543 7.11646 6.0695 7.02362 6.03182C6.93077 5.99414 6.83131 5.97546 6.73112 5.9769ZM12.7256 5.9769C12.5271 5.98 12.3379 6.06178 12.1997 6.20426C12.0614 6.34675 11.9853 6.53829 11.9882 6.73683V15.2277C11.9868 15.327 12.0051 15.4255 12.0421 15.5177C12.0791 15.6098 12.1341 15.6936 12.2038 15.7643C12.2735 15.835 12.3566 15.8912 12.4482 15.9295C12.5398 15.9678 12.6381 15.9876 12.7374 15.9876C12.8366 15.9876 12.9349 15.9678 13.0265 15.9295C13.1181 15.8912 13.2012 15.835 13.2709 15.7643C13.3406 15.6936 13.3956 15.6098 13.4326 15.5177C13.4696 15.4255 13.4879 15.327 13.4865 15.2277V6.73683C13.488 6.63655 13.4693 6.53701 13.4315 6.44409C13.3938 6.35118 13.3378 6.26679 13.2668 6.19592C13.1959 6.12506 13.1114 6.06916 13.0184 6.03153C12.9255 5.99391 12.8259 5.97533 12.7256 5.9769ZM0.737565 7.47529C0.539037 7.47839 0.349856 7.56016 0.211578 7.70265C0.073299 7.84514 -0.00277071 8.03668 7.71771e-05 8.23521V13.7293C-0.00132685 13.8286 0.0170143 13.9271 0.0540348 14.0193C0.0910553 14.1114 0.146017 14.1953 0.215725 14.266C0.285433 14.3367 0.368498 14.3928 0.460093 14.4311C0.551687 14.4694 0.649984 14.4892 0.749271 14.4892C0.848558 14.4892 0.946855 14.4694 1.03845 14.4311C1.13004 14.3928 1.21311 14.3367 1.28282 14.266C1.35253 14.1953 1.40749 14.1114 1.44451 14.0193C1.48153 13.9271 1.49987 13.8286 1.49847 13.7293V8.23521C1.4999 8.13494 1.4812 8.0354 1.44346 7.94248C1.40571 7.84957 1.3497 7.76518 1.27875 7.69431C1.20779 7.62345 1.12333 7.56755 1.03037 7.52992C0.937405 7.4923 0.837838 7.47372 0.737565 7.47529ZM18.7192 7.47529C18.5207 7.47839 18.3315 7.56016 18.1932 7.70265C18.0549 7.84514 17.9789 8.03668 17.9817 8.23521V13.7293C17.9803 13.8286 17.9986 13.9271 18.0357 14.0193C18.0727 14.1114 18.1276 14.1953 18.1974 14.266C18.2671 14.3367 18.3501 14.3928 18.4417 14.4311C18.5333 14.4694 18.6316 14.4892 18.7309 14.4892C18.8302 14.4892 18.9285 14.4694 19.0201 14.4311C19.1117 14.3928 19.1947 14.3367 19.2645 14.266C19.3342 14.1953 19.3891 14.1114 19.4261 14.0193C19.4632 13.9271 19.4815 13.8286 19.4801 13.7293V8.23521C19.4815 8.13494 19.4628 8.0354 19.4251 7.94248C19.3873 7.84957 19.3313 7.76518 19.2604 7.69431C19.1894 7.62345 19.105 7.56755 19.012 7.52992C18.919 7.4923 18.8195 7.47372 18.7192 7.47529ZM9.72692 8.47421C9.52839 8.47732 9.33921 8.55909 9.20093 8.70158C9.06265 8.84406 8.98658 9.03561 8.98943 9.23414V12.7304C8.98803 12.8297 9.00637 12.9282 9.04339 13.0203C9.08041 13.1125 9.13537 13.1963 9.20508 13.267C9.27479 13.3377 9.35785 13.3939 9.44945 13.4322C9.54104 13.4705 9.63934 13.4902 9.73862 13.4902C9.83791 13.4902 9.93621 13.4705 10.0278 13.4322C10.1194 13.3939 10.2025 13.3377 10.2722 13.267C10.3419 13.1963 10.3968 13.1125 10.4339 13.0203C10.4709 12.9282 10.4892 12.8297 10.4878 12.7304V9.23414C10.4893 9.13386 10.4706 9.03432 10.4328 8.94141C10.3951 8.8485 10.3391 8.76411 10.2681 8.69324C10.1971 8.62237 10.1127 8.56647 10.0197 8.52885C9.92676 8.49122 9.82719 8.47265 9.72692 8.47421Z" fill="#111111"></path></svg>