<svg xmlns="http://www.w3.org/2000/svg" width="20" height="15" viewBox="0 0 20 15" fill="none"><path d="M3.25 0C1.46403 0 0 1.46403 0 3.25V11.75C0 13.536 1.46403 15 3.25 15H11.75C13.536 15 15 13.536 15 11.75V11.0752L18.8643 13.3936C18.9781 13.4618 19.108 13.4986 19.2407 13.5002C19.3735 13.5019 19.5042 13.4683 19.6197 13.4028C19.7352 13.3374 19.8312 13.2425 19.898 13.1278C19.9649 13.0131 20 12.8827 20 12.75V2.25C20 2.14959 19.9799 2.0502 19.9408 1.95772C19.9017 1.86523 19.8445 1.78154 19.7724 1.71159C19.7004 1.64165 19.615 1.58688 19.5214 1.55053C19.4278 1.51419 19.3279 1.497 19.2275 1.5C19.0993 1.50384 18.9743 1.54049 18.8643 1.60645L15 3.9248V3.25C15 1.46403 13.536 0 11.75 0H3.25ZM3.25 1.5H11.75C12.725 1.5 13.5 2.27497 13.5 3.25V5.22656V9.74121V11.75C13.5 12.725 12.725 13.5 11.75 13.5H3.25C2.27497 13.5 1.5 12.725 1.5 11.75V3.25C1.5 2.27497 2.27497 1.5 3.25 1.5ZM18.5 3.5752V11.4248L15 9.3252V5.6748L18.5 3.5752Z" fill="#111111"></path></svg>