<svg xmlns="http://www.w3.org/2000/svg" width="20" height="14" viewBox="0 0 20 14" fill="none"><path d="M3.26712 0C2.43531 0 1.7468 0.688511 1.7468 1.52033V9.77353C1.7468 10.6053 2.43531 11.2939 3.26712 11.2939H16.7329C17.5647 11.2939 18.2532 10.6053 18.2532 9.77353V1.52033C18.2532 0.688511 17.5647 0 16.7329 0H3.26712ZM3.26712 1.30314H16.7329C16.861 1.30314 16.9501 1.39217 16.9501 1.52033V9.77353C16.9501 9.90169 16.861 9.99072 16.7329 9.99072H3.26712C3.13896 9.99072 3.04993 9.90169 3.04993 9.77353V1.52033C3.04993 1.39217 3.13896 1.30314 3.26712 1.30314ZM0.660849 12.597C0.574508 12.5958 0.488786 12.6117 0.408664 12.6439C0.328541 12.6761 0.255617 12.7239 0.194129 12.7845C0.13264 12.8452 0.0838143 12.9174 0.050488 12.9971C0.0171618 13.0767 0 13.1622 0 13.2486C0 13.3349 0.0171618 13.4204 0.050488 13.5001C0.0838143 13.5797 0.13264 13.652 0.194129 13.7126C0.255617 13.7732 0.328541 13.821 0.408664 13.8532C0.488786 13.8854 0.574508 13.9014 0.660849 13.9001H19.3392C19.4255 13.9014 19.5112 13.8854 19.5913 13.8532C19.6715 13.821 19.7444 13.7732 19.8059 13.7126C19.8674 13.652 19.9162 13.5797 19.9495 13.5001C19.9828 13.4204 20 13.3349 20 13.2486C20 13.1622 19.9828 13.0767 19.9495 12.9971C19.9162 12.9174 19.8674 12.8452 19.8059 12.7845C19.7444 12.7239 19.6715 12.6761 19.5913 12.6439C19.5112 12.6117 19.4255 12.5958 19.3392 12.597H0.660849Z" fill="#111111"></path></svg>