<svg xmlns="http://www.w3.org/2000/svg" width="19" height="20" viewBox="0 0 19 20" fill="none"><path d="M9.02621 -0.000414191C8.86508 0.00455858 8.71037 0.0638855 8.58723 0.167922C8.58723 0.167922 7.05095 1.4617 5.51626 3.36166C3.98156 5.26162 2.38111 7.78124 2.38111 10.4327C2.38111 11.8186 2.80264 13.1092 3.52319 14.1808L0.928396 13.366C0.547453 13.247 0.152747 13.4567 0.0337025 13.8329C-0.0853419 14.2091 0.124399 14.6086 0.50058 14.7276L6.37468 16.5737C6.45811 16.6107 6.54341 16.6434 6.62858 16.677L0.50058 18.6031C0.411056 18.6312 0.327941 18.6766 0.255981 18.7368C0.184022 18.797 0.124626 18.8708 0.0811863 18.954C0.0377463 19.0372 0.0111126 19.1281 0.00280568 19.2215C-0.00550122 19.315 0.00468148 19.4092 0.0327723 19.4987C0.0608631 19.5882 0.106312 19.6713 0.166524 19.7433C0.226736 19.8152 0.300532 19.8746 0.383698 19.9181C0.466864 19.9615 0.557772 19.9882 0.651232 19.9965C0.744691 20.0048 0.838871 19.9946 0.928396 19.9665L10.3134 17.0174C10.8013 16.9223 11.27 16.7728 11.714 16.5765L17.5946 14.7285C17.6842 14.7005 17.7673 14.655 17.8393 14.5948C17.9112 14.5346 17.9706 14.4608 18.0141 14.3776C18.0575 14.2945 18.0842 14.2035 18.0925 14.1101C18.1008 14.0166 18.0906 13.9224 18.0625 13.8329C18.0344 13.7434 17.989 13.6602 17.9288 13.5883C17.8685 13.5163 17.7947 13.4569 17.7116 13.4135C17.6284 13.37 17.5375 13.3434 17.444 13.3351C17.3505 13.3268 17.2563 13.337 17.1668 13.3651L14.5729 14.1798C15.293 13.1084 15.7141 11.8181 15.7141 10.4327C15.7141 7.90496 14.2582 5.50123 12.7901 3.63323C12.7901 3.63292 12.7901 3.63261 12.7901 3.6323C12.5864 3.37339 12.1988 3.29032 11.9298 3.38863C11.6608 3.48694 11.4285 3.77889 11.4285 4.10476V5.35658C11.4285 5.82534 11.0639 6.1899 10.5952 6.1899C10.1264 6.1899 9.76186 5.82534 9.76186 5.35658V0.713852C9.7619 0.618229 9.74273 0.523572 9.7055 0.435493C9.66827 0.347415 9.61374 0.267707 9.54513 0.201096C9.47653 0.134485 9.39524 0.0823261 9.30611 0.0477117C9.21697 0.0130973 9.12179 -0.00326808 9.02621 -0.000414191ZM8.33333 2.3907V5.35658C8.33333 6.59731 9.35445 7.61843 10.5952 7.61843C11.558 7.61843 12.3733 6.99768 12.6971 6.14246C13.567 7.54468 14.2856 9.03031 14.2856 10.4327C14.2856 12.1351 13.4897 13.6404 12.2562 14.6048C12.3258 14.3615 12.3808 14.1125 12.3808 13.8478C12.3808 12.4709 11.6253 11.2438 10.9272 10.3183C10.2291 9.39287 9.52842 8.75679 9.52842 8.75679C9.4037 8.6435 9.24295 8.57795 9.07457 8.57171C8.88759 8.56452 8.70526 8.63097 8.56677 8.75679C8.56677 8.75679 7.86607 9.39287 7.168 10.3183C6.46993 11.2438 5.71435 12.4709 5.71435 13.8478C5.71435 14.1027 5.74936 14.3471 5.80829 14.5816C4.5921 13.6162 3.80964 12.1211 3.80964 10.4327C3.80964 8.38431 5.1853 6.04454 6.62672 4.26007C7.24763 3.49139 7.82804 2.8965 8.33333 2.3907ZM9.0476 10.3509C9.28114 10.5875 9.41638 10.6873 9.78697 11.1786C10.3984 11.9892 10.9523 13.0424 10.9523 13.8478C10.9523 14.8807 10.1141 15.7134 9.0476 15.7134C7.98106 15.7134 7.14289 14.8807 7.14289 13.8478C7.14289 13.0424 7.6968 11.9892 8.30822 11.1786C8.67881 10.6873 8.81405 10.5875 9.0476 10.3509ZM13.8094 17.4136L11.4285 18.1613L17.1668 19.9656C17.2382 19.9894 17.3093 19.999 17.3807 19.999C17.6855 19.999 17.9663 19.8034 18.0615 19.4987C18.1805 19.1225 17.9708 18.723 17.5946 18.604L13.8094 17.4136Z" fill="#111111"></path></svg>