<svg xmlns="http://www.w3.org/2000/svg" width="12" height="20" viewBox="0 0 12 20" fill="none"><path d="M2.04545 0C0.923863 0 0 0.923863 0 2.04545V17.9545C0 19.0761 0.923863 20 2.04545 20H9.77273C10.8943 20 11.8182 19.0761 11.8182 17.9545V2.04545C11.8182 0.923863 10.8943 0 9.77273 0H2.04545ZM2.04545 1.36364H9.77273C10.1575 1.36364 10.4545 1.66068 10.4545 2.04545V17.9545C10.4545 18.3393 10.1575 18.6364 9.77273 18.6364H2.04545C1.66068 18.6364 1.36364 18.3393 1.36364 17.9545V2.04545C1.36364 1.66068 1.66068 1.36364 2.04545 1.36364ZM4.54545 2.27273C4.04318 2.27273 3.63636 2.67955 3.63636 3.18182C3.63636 3.68409 4.04318 4.09091 4.54545 4.09091H7.27273C7.775 4.09091 8.18182 3.68409 8.18182 3.18182C8.18182 2.67955 7.775 2.27273 7.27273 2.27273H4.54545Z" fill="#111111"></path></svg>