<svg xmlns="http://www.w3.org/2000/svg" width="19" height="21" viewBox="0 0 19 21" fill="none"><path d="M9.48051 0.015625C8.87549 0.015625 8.27071 0.212425 7.77081 0.606099H7.76978L1.50602 5.54283C0.556091 6.29146 0 7.43537 0 8.6454V18.1722C0 19.1808 0.834835 20.0156 1.84343 20.0156H17.1176C18.1262 20.0156 18.961 19.1808 18.961 18.1722V8.6454C18.961 7.43537 18.4049 6.29146 17.455 5.54283L17.3809 5.48317V1.32413C17.3809 1.11461 17.2977 0.913669 17.1495 0.765511C17.0013 0.617354 16.8004 0.534111 16.5909 0.53409H13.9574C13.7479 0.534111 13.5469 0.617354 13.3988 0.765511C13.2506 0.913669 13.1674 1.11461 13.1674 1.32413V2.16355L11.1902 0.606099C10.6903 0.212425 10.0855 0.015625 9.48051 0.015625ZM9.48051 1.59159C9.73848 1.59159 9.99654 1.67733 10.2129 1.84774L13.4688 4.41229C13.5853 4.50395 13.7252 4.56098 13.8726 4.57688C14.02 4.59278 14.1688 4.5669 14.3022 4.50221C14.4356 4.43751 14.548 4.3366 14.6268 4.21101C14.7055 4.08542 14.7473 3.94022 14.7475 3.79199V2.11417H15.8008V5.86687C15.8009 5.98633 15.8281 6.10421 15.8803 6.21165C15.9325 6.31909 16.0084 6.4133 16.1023 6.48718L16.4777 6.78345C17.0489 7.23358 17.3809 7.91824 17.3809 8.6454V18.1722C17.3809 18.3276 17.273 18.4355 17.1176 18.4355H1.84343C1.68803 18.4355 1.58008 18.3276 1.58008 18.1722V8.6454C1.58008 7.91824 1.91212 7.23358 2.48328 6.78345L8.74807 1.84774C8.96447 1.67733 9.22253 1.59159 9.48051 1.59159ZM4.47691 10.0084C4.26738 10.0084 4.06644 10.0917 3.91828 10.2398C3.77013 10.388 3.68688 10.5889 3.68686 10.7985V15.012C3.68688 15.2216 3.77013 15.4225 3.91828 15.5706C4.06644 15.7188 4.26738 15.802 4.47691 15.8021H7.63707C7.8466 15.802 8.04754 15.7188 8.19569 15.5706C8.34385 15.4225 8.4271 15.2216 8.42712 15.012V10.7985C8.4271 10.5889 8.34385 10.388 8.19569 10.2398C8.04754 10.0917 7.8466 10.0084 7.63707 10.0084H4.47691ZM11.3239 10.0084C11.1144 10.0084 10.9135 10.0917 10.7653 10.2398C10.6172 10.388 10.5339 10.5889 10.5339 10.7985V15.012C10.5339 15.2216 10.6172 15.4225 10.7653 15.5706C10.9135 15.7188 11.1144 15.802 11.3239 15.8021H14.4841C14.6936 15.802 14.8946 15.7188 15.0427 15.5706C15.1909 15.4225 15.2741 15.2216 15.2741 15.012V10.7985C15.2741 10.5889 15.1909 10.388 15.0427 10.2398C14.8946 10.0917 14.6936 10.0084 14.4841 10.0084H11.3239ZM5.26695 11.5885H6.84703V14.222H5.26695V11.5885ZM12.114 11.5885H13.6941V14.222H12.114V11.5885Z" fill="#111111"></path></svg>