<svg xmlns="http://www.w3.org/2000/svg" width="20" height="19" viewBox="0 0 20 19" fill="none"><path d="M11.7022 0.101564C11.6327 0.101456 11.5629 0.106546 11.4933 0.115967C11.2149 0.153649 10.9403 0.268533 10.7135 0.469861C10.7135 0.470204 10.7135 0.470547 10.7135 0.47089L5.85571 4.7886H2.37027C1.07057 4.7886 0 5.85918 0 7.15887V11.8994C0 13.1991 1.07057 14.2697 2.37027 14.2697H5.85571L10.7135 18.5874C11.1669 18.9905 11.81 19.0498 12.2968 18.8312C12.7836 18.6126 13.1682 18.0923 13.1682 17.4856V1.57269C13.1682 0.966188 12.7847 0.445734 12.2978 0.227073C12.1153 0.145075 11.9105 0.101889 11.7022 0.101564ZM11.588 1.80725V17.251L6.68078 12.8891C6.53621 12.7606 6.34953 12.6896 6.15611 12.6895H2.37027C1.92439 12.6895 1.58018 12.3453 1.58018 11.8994V7.15887C1.58018 6.713 1.92439 6.36878 2.37027 6.36878H6.15611C6.34953 6.36871 6.53621 6.2977 6.68078 6.1692L11.588 1.80725ZM17.7801 3.19814C17.643 3.19758 17.5082 3.23268 17.3888 3.3C17.2694 3.36732 17.1695 3.46454 17.0991 3.58211C17.0286 3.69969 16.99 3.83357 16.9869 3.9706C16.9838 4.10764 17.0164 4.24312 17.0816 4.36373C18.9037 7.85315 18.9037 11.2051 17.0816 14.6946C17.0316 14.7867 17.0005 14.8879 16.99 14.9923C16.9795 15.0966 16.9899 15.2019 17.0206 15.3022C17.0512 15.4025 17.1015 15.4956 17.1686 15.5763C17.2356 15.6569 17.318 15.7234 17.411 15.7718C17.5039 15.8203 17.6056 15.8498 17.7101 15.8586C17.8146 15.8673 17.9198 15.8552 18.0195 15.8229C18.1193 15.7907 18.2116 15.7388 18.2911 15.6705C18.3707 15.6022 18.4358 15.5187 18.4827 15.425C20.5058 11.5508 20.5058 7.50751 18.4827 3.6333C18.4172 3.50298 18.3169 3.39334 18.1928 3.31653C18.0688 3.23972 17.926 3.19875 17.7801 3.19814ZM15.3656 5.84C15.2352 5.84556 15.1083 5.88333 14.996 5.94993C14.8838 6.01652 14.7898 6.10987 14.7225 6.22164C14.6551 6.33341 14.6165 6.46012 14.6101 6.59045C14.6036 6.72079 14.6296 6.85069 14.6856 6.96855C15.4844 8.71647 15.4833 10.3507 14.6815 12.099C14.6375 12.1934 14.6126 12.2955 14.6082 12.3996C14.6039 12.5036 14.6201 12.6075 14.6561 12.7052C14.692 12.803 14.7469 12.8927 14.8176 12.9691C14.8883 13.0456 14.9734 13.1073 15.068 13.1508C15.1626 13.1942 15.2649 13.2185 15.369 13.2223C15.4731 13.2261 15.5768 13.2093 15.6744 13.1728C15.7719 13.1364 15.8613 13.081 15.9374 13.0099C16.0134 12.9387 16.0747 12.8533 16.1176 12.7584C17.0856 10.6479 17.0874 8.42206 16.1228 6.31117C16.0587 6.16553 15.9521 6.04263 15.817 5.95856C15.6819 5.87449 15.5246 5.83317 15.3656 5.84Z" fill="#111111"></path></svg>