<svg xmlns="http://www.w3.org/2000/svg" width="20" height="17" viewBox="0 0 20 17" fill="none"><path d="M2.36842 0C1.06974 0 0 1.06974 0 2.36842V14.4737C0 15.7724 1.06974 16.8421 2.36842 16.8421H17.6316C18.9303 16.8421 20 15.7724 20 14.4737V2.36842C20 1.06974 18.9303 0 17.6316 0H2.36842ZM2.36842 1.57895H17.6316C18.0771 1.57895 18.4211 1.9229 18.4211 2.36842V14.4737C18.4211 14.9192 18.0771 15.2632 17.6316 15.2632H2.36842C1.9229 15.2632 1.57895 14.9192 1.57895 14.4737V2.36842C1.57895 1.9229 1.9229 1.57895 2.36842 1.57895ZM3.94737 7.63158C3.73799 7.63158 3.53718 7.71476 3.38913 7.86281C3.24107 8.01087 3.15789 8.21167 3.15789 8.42105C3.15789 8.63043 3.24107 8.83124 3.38913 8.97929C3.53718 9.12735 3.73799 9.21053 3.94737 9.21053C4.15675 9.21053 4.35756 9.12735 4.50561 8.97929C4.65367 8.83124 4.73684 8.63043 4.73684 8.42105C4.73684 8.21167 4.65367 8.01087 4.50561 7.86281C4.35756 7.71476 4.15675 7.63158 3.94737 7.63158Z" fill="#111111"></path></svg>