<svg xmlns="http://www.w3.org/2000/svg" width="20" height="21" viewBox="0 0 20 21" fill="none"><path d="M4.46753 0.978368C4.25857 0.981632 4.05944 1.06771 3.91389 1.21768C3.76835 1.36766 3.68828 1.56927 3.69127 1.77824V3.25375C3.03013 3.49352 2.51509 4.00856 2.27532 4.66971H0.799812C0.695316 4.66823 0.591568 4.68753 0.494597 4.7265C0.397627 4.76547 0.309368 4.82332 0.23495 4.89669C0.160532 4.97006 0.101439 5.0575 0.0611047 5.15391C0.0207706 5.25032 0 5.35378 0 5.45829C0 5.56279 0.0207706 5.66626 0.0611047 5.76267C0.101439 5.85908 0.160532 5.94651 0.23495 6.01988C0.309368 6.09326 0.397627 6.15111 0.494597 6.19007C0.591568 6.22904 0.695316 6.24835 0.799812 6.24687H2.11411V8.34975H0.799812C0.695316 8.34827 0.591568 8.36758 0.494597 8.40654C0.397627 8.44551 0.309368 8.50336 0.23495 8.57673C0.160532 8.65011 0.101439 8.73754 0.0611047 8.83395C0.0207706 8.93036 0 9.03382 0 9.13833C0 9.24284 0.0207706 9.3463 0.0611047 9.44271C0.101439 9.53912 0.160532 9.62655 0.23495 9.69993C0.309368 9.7733 0.397627 9.83115 0.494597 9.87012C0.591568 9.90908 0.695316 9.92839 0.799812 9.92691H2.11411V12.0298H0.799812C0.695316 12.0283 0.591568 12.0476 0.494597 12.0866C0.397627 12.1256 0.309368 12.1834 0.23495 12.2568C0.160532 12.3302 0.101439 12.4176 0.0611047 12.514C0.0207706 12.6104 0 12.7139 0 12.8184C0 12.9229 0.0207706 13.0263 0.0611047 13.1228C0.101439 13.2192 0.160532 13.3066 0.23495 13.38C0.309368 13.4533 0.397627 13.5112 0.494597 13.5502C0.591568 13.5891 0.695316 13.6084 0.799812 13.607H2.11411V15.7098H0.799812C0.695316 15.7084 0.591568 15.7277 0.494597 15.7666C0.397627 15.8056 0.309368 15.8634 0.23495 15.9368C0.160532 16.0102 0.101439 16.0976 0.0611047 16.194C0.0207706 16.2904 0 16.3939 0 16.4984C0 16.6029 0.0207706 16.7064 0.0611047 16.8028C0.101439 16.8992 0.160532 16.9866 0.23495 17.06C0.309368 17.1334 0.397627 17.1912 0.494597 17.2302C0.591568 17.2692 0.695316 17.2885 0.799812 17.287H2.27532C2.51509 17.9481 3.03013 18.4632 3.69127 18.703V20.1785C3.6898 20.283 3.7091 20.3867 3.74807 20.4837C3.78704 20.5806 3.84489 20.6689 3.91826 20.7433C3.99163 20.8177 4.07906 20.8768 4.17547 20.9172C4.27188 20.9575 4.37535 20.9783 4.47986 20.9783C4.58436 20.9783 4.68783 20.9575 4.78424 20.9172C4.88065 20.8768 4.96808 20.8177 5.04145 20.7433C5.11482 20.6689 5.17267 20.5806 5.21164 20.4837C5.25061 20.3867 5.26991 20.283 5.26844 20.1785V18.8642H7.37132V20.1785C7.36984 20.283 7.38915 20.3867 7.42811 20.4837C7.46708 20.5806 7.52493 20.6689 7.5983 20.7433C7.67168 20.8177 7.75911 20.8768 7.85552 20.9172C7.95193 20.9575 8.05539 20.9783 8.1599 20.9783C8.26441 20.9783 8.36787 20.9575 8.46428 20.9172C8.56069 20.8768 8.64812 20.8177 8.72149 20.7433C8.79487 20.6689 8.85272 20.5806 8.89168 20.4837C8.93065 20.3867 8.94996 20.283 8.94848 20.1785V18.8642H11.0514V20.1785C11.0499 20.283 11.0692 20.3867 11.1082 20.4837C11.1471 20.5806 11.205 20.6689 11.2783 20.7433C11.3517 20.8177 11.4392 20.8768 11.5356 20.9172C11.632 20.9575 11.7354 20.9783 11.8399 20.9783C11.9444 20.9783 12.0479 20.9575 12.1443 20.9172C12.2407 20.8768 12.3282 20.8177 12.4015 20.7433C12.4749 20.6689 12.5328 20.5806 12.5717 20.4837C12.6107 20.3867 12.63 20.283 12.6285 20.1785V18.8642H14.7314V20.1785C14.7299 20.283 14.7492 20.3867 14.7882 20.4837C14.8272 20.5806 14.885 20.6689 14.9584 20.7433C15.0318 20.8177 15.1192 20.8768 15.2156 20.9172C15.312 20.9575 15.4155 20.9783 15.52 20.9783C15.6245 20.9783 15.728 20.9575 15.8244 20.9172C15.9208 20.8768 16.0082 20.8177 16.0816 20.7433C16.155 20.6689 16.2128 20.5806 16.2518 20.4837C16.2907 20.3867 16.31 20.283 16.3086 20.1785V18.703C16.9697 18.4632 17.4847 17.9481 17.7245 17.287H19.2C19.3045 17.2885 19.4083 17.2692 19.5052 17.2302C19.6022 17.1912 19.6905 17.1334 19.7649 17.06C19.8393 16.9866 19.8984 16.8992 19.9387 16.8028C19.9791 16.7064 19.9998 16.6029 19.9998 16.4984C19.9998 16.3939 19.9791 16.2904 19.9387 16.194C19.8984 16.0976 19.8393 16.0102 19.7649 15.9368C19.6905 15.8634 19.6022 15.8056 19.5052 15.7666C19.4083 15.7277 19.3045 15.7084 19.2 15.7098H17.8857V13.607H19.2C19.3045 13.6084 19.4083 13.5891 19.5052 13.5502C19.6022 13.5112 19.6905 13.4533 19.7649 13.38C19.8393 13.3066 19.8984 13.2192 19.9387 13.1228C19.9791 13.0263 19.9998 12.9229 19.9998 12.8184C19.9998 12.7139 19.9791 12.6104 19.9387 12.514C19.8984 12.4176 19.8393 12.3302 19.7649 12.2568C19.6905 12.1834 19.6022 12.1256 19.5052 12.0866C19.4083 12.0476 19.3045 12.0283 19.2 12.0298H17.8857V9.92691H19.2C19.3045 9.92839 19.4083 9.90908 19.5052 9.87012C19.6022 9.83115 19.6905 9.7733 19.7649 9.69993C19.8393 9.62655 19.8984 9.53912 19.9387 9.44271C19.9791 9.3463 19.9998 9.24284 19.9998 9.13833C19.9998 9.03382 19.9791 8.93036 19.9387 8.83395C19.8984 8.73754 19.8393 8.65011 19.7649 8.57673C19.6905 8.50336 19.6022 8.44551 19.5052 8.40654C19.4083 8.36758 19.3045 8.34827 19.2 8.34975H17.8857V6.24687H19.2C19.3045 6.24835 19.4083 6.22904 19.5052 6.19007C19.6022 6.15111 19.6905 6.09326 19.7649 6.01988C19.8393 5.94651 19.8984 5.85908 19.9387 5.76267C19.9791 5.66626 19.9998 5.56279 19.9998 5.45829C19.9998 5.35378 19.9791 5.25032 19.9387 5.15391C19.8984 5.0575 19.8393 4.97006 19.7649 4.89669C19.6905 4.82332 19.6022 4.76547 19.5052 4.7265C19.4083 4.68753 19.3045 4.66823 19.2 4.66971H17.7245C17.4847 4.00856 16.9697 3.49352 16.3086 3.25375V1.77824C16.31 1.67375 16.2907 1.57 16.2518 1.47303C16.2128 1.37606 16.155 1.2878 16.0816 1.21338C16.0082 1.13896 15.9208 1.07987 15.8244 1.03954C15.728 0.999202 15.6245 0.978431 15.52 0.978431C15.4155 0.978431 15.312 0.999202 15.2156 1.03954C15.1192 1.07987 15.0318 1.13896 14.9584 1.21338C14.885 1.2878 14.8272 1.37606 14.7882 1.47303C14.7492 1.57 14.7299 1.67375 14.7314 1.77824V3.09254H12.6285V1.77824C12.63 1.67375 12.6107 1.57 12.5717 1.47303C12.5328 1.37606 12.4749 1.2878 12.4015 1.21338C12.3282 1.13896 12.2407 1.07987 12.1443 1.03954C12.0479 0.999202 11.9444 0.978431 11.8399 0.978431C11.7354 0.978431 11.632 0.999202 11.5356 1.03954C11.4392 1.07987 11.3517 1.13896 11.2783 1.21338C11.205 1.2878 11.1471 1.37606 11.1082 1.47303C11.0692 1.57 11.0499 1.67375 11.0514 1.77824V3.09254H8.94848V1.77824C8.94996 1.67375 8.93065 1.57 8.89168 1.47303C8.85272 1.37606 8.79487 1.2878 8.72149 1.21338C8.64812 1.13896 8.56069 1.07987 8.46428 1.03954C8.36787 0.999202 8.26441 0.978431 8.1599 0.978431C8.05539 0.978431 7.95193 0.999202 7.85552 1.03954C7.75911 1.07987 7.67168 1.13896 7.5983 1.21338C7.52493 1.2878 7.46708 1.37606 7.42811 1.47303C7.38915 1.57 7.36984 1.67375 7.37132 1.77824V3.09254H5.26844V1.77824C5.26995 1.6727 5.25026 1.56792 5.21053 1.47012C5.17081 1.37233 5.11185 1.2835 5.03717 1.20891C4.96248 1.13431 4.87358 1.07547 4.77573 1.03587C4.67788 0.996273 4.57308 0.976718 4.46753 0.978368ZM4.60615 4.66971H8.03052C8.11518 4.68361 8.20154 4.68361 8.2862 4.66971H11.7106C11.7952 4.68361 11.8816 4.68361 11.9662 4.66971H15.3906C15.4418 4.67822 15.4938 4.68166 15.5457 4.67997C15.966 4.69485 16.2839 5.01313 16.2983 5.43364C16.2969 5.48417 16.3003 5.53471 16.3086 5.58458V9.00895C16.2947 9.09361 16.2947 9.17997 16.3086 9.26463V12.689C16.2947 12.7737 16.2947 12.86 16.3086 12.9447V16.369C16.3 16.4203 16.2966 16.4722 16.2983 16.5241C16.2834 16.9444 15.9651 17.2624 15.5446 17.2767C15.4941 17.2753 15.4436 17.2787 15.3937 17.287H11.9693C11.8847 17.2731 11.7983 17.2731 11.7136 17.287H8.28928C8.20462 17.2731 8.11826 17.2731 8.0336 17.287H4.60923C4.55801 17.2785 4.50608 17.275 4.45419 17.2767C4.03383 17.2619 3.71591 16.9436 3.70154 16.5231C3.70296 16.4725 3.69953 16.422 3.69127 16.3721V12.9477C3.70518 12.8631 3.70518 12.7767 3.69127 12.6921V9.26771C3.70518 9.18305 3.70518 9.09669 3.69127 9.01203V5.58766C3.69979 5.53644 3.70323 5.48451 3.70154 5.43262C3.71642 5.01226 4.0347 4.69434 4.45521 4.67997C4.50574 4.6814 4.55628 4.67796 4.60615 4.66971ZM7.63418 7.29831C6.9197 7.29831 6.31988 7.89813 6.31988 8.61261V13.3441C6.31988 14.0586 6.9197 14.6584 7.63418 14.6584H12.3657C13.0801 14.6584 13.68 14.0586 13.68 13.3441V8.61261C13.68 7.89813 13.0801 7.29831 12.3657 7.29831H7.63418ZM7.89704 8.87547H12.1028V13.0812H7.89704V8.87547Z" fill="#111111"></path></svg>