<svg xmlns="http://www.w3.org/2000/svg" xmlns:xlink="http://www.w3.org/1999/xlink" width="150" viewBox="0 0 112.5 112.499997" height="150" preserveAspectRatio="xMidYMid meet"><defs><clipPath id="8adc09000f"><path d="M 4.09375 7.648438 L 100.800781 7.648438 L 100.800781 104.355469 L 4.09375 104.355469 Z M 4.09375 7.648438 " clip-rule="nonzero"></path></clipPath><clipPath id="ea8e5d0164"><path d="M 52.449219 7.648438 C 25.742188 7.648438 4.09375 29.296875 4.09375 56 C 4.09375 82.707031 25.742188 104.355469 52.449219 104.355469 C 79.152344 104.355469 100.800781 82.707031 100.800781 56 C 100.800781 29.296875 79.152344 7.648438 52.449219 7.648438 Z M 52.449219 7.648438 " clip-rule="nonzero"></path></clipPath><clipPath id="f63d59bb74"><path d="M 23.199219 28 L 81 28 L 81 84.484375 L 23.199219 84.484375 Z M 23.199219 28 " clip-rule="nonzero"></path></clipPath></defs><g clip-path="url(#8adc09000f)"><g clip-path="url(#ea8e5d0164)"><path fill="#dc3d53" d="M 4.09375 7.648438 L 100.800781 7.648438 L 100.800781 104.355469 L 4.09375 104.355469 Z M 4.09375 7.648438 " fill-opacity="1" fill-rule="nonzero"></path></g></g><g clip-path="url(#f63d59bb74)"><path fill="#ffffff" d="M 80.867188 35.789062 C 80.019531 30.917969 74.890625 27.726562 69.4375 28.675781 C 66.648438 29.164062 64.253906 30.609375 62.679688 32.78125 C 62.609375 32.878906 62.5625 32.980469 62.492188 33.070312 L 48.640625 33.539062 C 48.390625 33.546875 48.152344 33.648438 47.972656 33.828125 L 24.351562 57.445312 C 23.664062 58.132812 23.257812 59.03125 23.207031 59.964844 C 23.15625 60.941406 23.496094 61.851562 24.164062 62.507812 L 44.890625 83.234375 C 45.53125 83.875 46.386719 84.191406 47.253906 84.191406 C 48.210938 84.191406 49.199219 83.804688 49.953125 83.046875 L 73.574219 59.429688 C 73.753906 59.25 73.851562 59.007812 73.863281 58.75 L 74.269531 45.894531 C 78.804688 44.351562 81.617188 40.125 80.867188 35.789062 Z M 72.328125 44.378906 C 72.277344 44.390625 72.238281 44.398438 72.179688 44.410156 C 71.320312 44.558594 70.425781 44.589844 69.558594 44.480469 C 69.558594 42.777344 68.910156 41.070312 67.613281 39.777344 C 65.023438 37.183594 60.808594 37.183594 58.214844 39.777344 C 55.625 42.367188 55.625 46.582031 58.214844 49.171875 C 59.511719 50.46875 61.214844 51.117188 62.910156 51.117188 C 64.605469 51.117188 66.320312 50.46875 67.605469 49.171875 C 68.390625 48.386719 68.9375 47.441406 69.25 46.441406 C 69.695312 46.503906 70.15625 46.53125 70.605469 46.53125 C 71.152344 46.53125 71.710938 46.484375 72.246094 46.402344 L 71.871094 58.292969 L 48.550781 81.632812 C 47.871094 82.300781 46.867188 82.390625 46.296875 81.820312 L 25.570312 61.09375 C 25.308594 60.832031 25.171875 60.464844 25.199219 60.054688 C 25.21875 59.609375 25.417969 59.179688 25.757812 58.839844 L 49.097656 35.5 L 72.625 34.722656 Z M 63.320312 39.867188 C 64.375 39.957031 65.402344 40.382812 66.207031 41.191406 C 66.984375 41.96875 67.414062 42.964844 67.523438 43.992188 C 65.511719 43.222656 63.976562 41.71875 63.320312 39.867188 Z M 67.296875 46.003906 C 67.074219 46.652344 66.71875 47.261719 66.207031 47.769531 C 64.394531 49.582031 61.445312 49.582031 59.632812 47.769531 C 57.816406 45.953125 57.816406 43.003906 59.632812 41.191406 C 60.128906 40.691406 60.707031 40.34375 61.335938 40.125 C 62.132812 42.867188 64.355469 45.058594 67.296875 46.003906 Z M 74.339844 43.734375 L 74.660156 33.71875 C 74.667969 33.4375 74.558594 33.179688 74.371094 32.980469 C 74.171875 32.789062 73.914062 32.679688 73.632812 32.691406 L 65.140625 32.980469 C 66.359375 31.792969 67.984375 30.957031 69.777344 30.636719 C 74.152344 29.878906 78.246094 32.351562 78.90625 36.140625 C 79.441406 39.246094 77.539062 42.308594 74.339844 43.734375 Z M 74.339844 43.734375 " fill-opacity="1" fill-rule="nonzero"></path></g><path fill="#ffffff" d="M 38.941406 52.949219 C 36.871094 55.023438 35.734375 57.773438 35.734375 60.703125 C 35.734375 63.632812 36.871094 66.382812 38.941406 68.457031 C 41.015625 70.53125 43.765625 71.664062 46.695312 71.664062 C 49.625 71.664062 52.375 70.53125 54.449219 68.457031 C 56.523438 66.382812 57.660156 63.632812 57.660156 60.703125 C 57.660156 57.773438 56.523438 55.023438 54.449219 52.949219 C 52.375 50.878906 49.625 49.742188 46.695312 49.742188 C 43.765625 49.742188 41.015625 50.886719 38.941406 52.949219 Z M 49.644531 56.339844 L 50.644531 55.34375 C 51.03125 54.953125 51.660156 54.953125 52.046875 55.34375 C 52.4375 55.730469 52.4375 56.359375 52.046875 56.746094 L 51.0625 57.734375 L 52.007812 58.679688 C 52.398438 59.070312 52.398438 59.695312 52.007812 60.085938 C 51.621094 60.472656 50.992188 60.472656 50.601562 60.085938 L 48.359375 57.84375 C 48.140625 57.625 47.832031 57.484375 47.535156 57.484375 C 47.265625 57.484375 46.964844 57.585938 46.757812 57.792969 C 46.328125 58.222656 46.347656 58.941406 46.804688 59.398438 L 47.980469 60.574219 C 48.570312 61.164062 48.910156 61.949219 48.917969 62.777344 C 48.929688 63.625 48.621094 64.410156 48.03125 65 C 47.464844 65.566406 46.675781 65.894531 45.859375 65.894531 C 45.839844 65.894531 45.828125 65.894531 45.808594 65.894531 C 45.03125 65.886719 44.304688 65.578125 43.726562 65.058594 L 42.730469 66.054688 C 42.53125 66.253906 42.28125 66.34375 42.023438 66.34375 C 41.761719 66.34375 41.515625 66.246094 41.316406 66.054688 C 40.925781 65.667969 40.925781 65.039062 41.316406 64.648438 L 42.300781 63.664062 L 41.355469 62.71875 C 40.964844 62.328125 40.964844 61.699219 41.355469 61.3125 C 41.742188 60.921875 42.371094 60.921875 42.761719 61.3125 L 45.003906 63.554688 C 45.222656 63.773438 45.53125 63.914062 45.828125 63.914062 C 46.097656 63.902344 46.398438 63.804688 46.605469 63.605469 C 46.804688 63.40625 46.914062 63.125 46.914062 62.828125 C 46.90625 62.515625 46.785156 62.21875 46.558594 62 L 45.378906 60.824219 C 44.144531 59.585938 44.125 57.605469 45.332031 56.398438 C 45.910156 55.820312 46.695312 55.492188 47.554688 55.5 C 48.339844 55.511719 49.066406 55.820312 49.644531 56.339844 Z M 49.644531 56.339844 " fill-opacity="1" fill-rule="nonzero"></path></svg>